<?xml version="1.0" encoding="UTF-8"?>
<svg width="23px" height="21px" viewBox="0 0 23 21" version="1.1" xmlns="http://www.w3.org/2000/svg" xmlns:xlink="http://www.w3.org/1999/xlink">
    <!-- Generator: Sketch 51.2 (57519) - http://www.bohemiancoding.com/sketch -->
    <title>Combined Shape Copy 4</title>
    <desc>Created with Sketch.</desc>
    <defs></defs>
    <g id="Director" stroke="none" stroke-width="1" fill="none" fill-rule="evenodd">
        <g id="Home" transform="translate(-1076.000000, -141.000000)" fill="#DE7163">
            <path d="M1087.556,141.867188 C1087.04862,141.867188 1086.58024,142.133869 1086.33112,142.565215 L1076.84476,158.997447 C1076.59951,159.421262 1076.60442,159.940246 1076.85636,160.360295 C1077.10864,160.780002 1077.57035,161.038125 1078.06965,161.038125 L1097.04377,161.038125 C1097.54307,161.038125 1098.00477,160.780002 1098.25706,160.360295 C1098.50899,159.940246 1098.51356,159.421262 1098.26865,158.997447 L1088.78089,142.565215 C1088.53212,142.133869 1088.06374,141.867188 1087.556,141.867188 M1087.556,143.23654 L1097.04377,159.668772 L1078.06965,159.668772 L1087.556,143.23654 Z M1088.52298,157.634712 C1088.52298,157.067115 1088.05179,156.607697 1087.46922,156.607697 C1086.88629,156.607697 1086.41475,157.067115 1086.41475,157.634712 C1086.41475,158.202308 1086.88629,158.661726 1087.46922,158.661726 C1088.05179,158.661726 1088.52298,158.202308 1088.52298,157.634712 Z M1087.46886,154.875295 C1087.85678,154.875295 1088.17161,154.56856 1088.17161,154.190618 L1088.17161,148.713208 C1088.17161,148.335266 1087.85678,148.028531 1087.46886,148.028531 C1087.08095,148.028531 1086.76612,148.335266 1086.76612,148.713208 L1086.76612,154.190618 C1086.76612,154.56856 1087.08095,154.875295 1087.46886,154.875295 Z" id="Combined-Shape-Copy-4"></path>
        </g>
    </g>
</svg>